<svg width="70" height="39" viewBox="0 0 70 39" fill="none" xmlns="http://www.w3.org/2000/svg">
<path d="M52.1493 11.7799L57.9751 1.80252C58.0778 1.63173 58.1384 1.42401 58.1384 1.20245C58.1384 0.540064 57.5969 0.0046167 56.9271 0.0046167C56.4813 0.0046167 56.0915 0.242337 55.8814 0.597764L55.8791 0.602379L49.981 10.7043C45.5767 8.70334 40.4255 7.53551 34.9988 7.53551C29.5722 7.53551 24.421 8.70334 19.7879 10.7967L20.0167 10.7043L14.1186 0.600071C13.9062 0.240029 13.5141 0 13.0683 0C12.3984 0 11.8569 0.535448 11.8569 1.19783C11.8569 1.4194 11.9176 1.62481 12.0226 1.80252L12.0203 1.79791L17.846 11.7752C7.84235 17.2382 0.956954 27.2317 0.00700215 38.88L0 39H70C69.043 27.2317 62.1576 17.2382 52.3314 11.8629L52.154 11.7752L52.1493 11.7799ZM18.8847 29.1427C17.2742 29.1427 15.9695 27.8525 15.9695 26.26C15.9695 24.6675 17.2742 23.3774 18.8847 23.3774C20.4951 23.3774 21.7999 24.6675 21.7999 26.26C21.7975 27.8502 20.4951 29.1404 18.8847 29.1427ZM51.1037 29.1427C49.4932 29.1427 48.1885 27.8525 48.1885 26.26C48.1885 24.6675 49.4932 23.3774 51.1037 23.3774C52.7141 23.3774 54.0189 24.6675 54.0189 26.26C54.0165 27.8502 52.7141 29.1404 51.1037 29.1427Z" fill="black"/>
</svg>
