<svg width="70" height="82" viewBox="0 0 70 82" fill="none" xmlns="http://www.w3.org/2000/svg">
<path fill-rule="evenodd" clip-rule="evenodd" d="M47.6448 13.0909C50.6469 9.6264 52.6705 4.80106 52.1167 0C47.7906 0.164002 42.5567 2.75173 39.4547 6.21212C36.6692 9.28301 34.2376 14.1898 34.8913 18.8966C39.7171 19.2533 44.6428 16.5594 47.6448 13.0909ZM58.4664 43.5629C58.5872 55.9736 69.8751 60.1019 70 60.1552C69.9084 60.4464 68.1971 66.0378 64.0542 71.8187C60.4692 76.8125 56.7509 81.7861 50.8926 81.8927C45.1383 81.9952 43.2854 78.6375 36.7025 78.6375C30.1238 78.6375 28.0669 81.7857 22.6207 81.9948C16.9663 82.1957 12.6568 76.5919 9.04687 71.6145C1.66038 61.4343 -3.9815 42.8458 3.59653 30.2998C7.36056 24.072 14.085 20.1221 21.3882 20.0237C26.9385 19.9212 32.1807 23.5872 35.5741 23.5872C38.9676 23.5872 45.3381 19.1797 52.0334 19.8275C54.8356 19.9382 62.7051 20.9055 67.7557 27.9615C67.3477 28.2034 58.3665 33.19 58.4664 43.5629Z" fill="black"/>
</svg>
