<svg width="78" height="28" viewBox="0 0 78 28" fill="none" xmlns="http://www.w3.org/2000/svg">
<path d="M0.791016 2.00146H2.86084C4.64941 2.00146 5.51953 3.06494 5.51953 4.99414C5.51953 6.92334 4.64062 8 2.86084 8H0.791016V2.00146ZM1.78857 2.84082V7.16064H2.75098C3.9375 7.16064 4.49561 6.44434 4.49561 5.00732C4.49561 3.56152 3.93311 2.84082 2.75098 2.84082H1.78857ZM8.6748 3.27588C9.8877 3.27588 10.7358 4.0625 10.7358 5.36768V5.96973C10.7358 7.31885 9.8877 8.0791 8.6748 8.0791C7.44434 8.0791 6.60498 7.32764 6.60498 5.97412V5.37207C6.60498 4.10205 7.45752 3.27588 8.6748 3.27588ZM8.6792 4.0625C7.98486 4.0625 7.58936 4.64258 7.58936 5.42041V5.93896C7.58936 6.7168 7.9585 7.29248 8.6792 7.29248C9.39111 7.29248 9.75586 6.72119 9.75586 5.93896V5.42041C9.75586 4.64258 9.37354 4.0625 8.6792 4.0625ZM17.8989 3.35498L16.6772 8H15.6841L14.7129 4.57227H14.6865L13.7329 8H12.7354L11.4609 3.35498H12.5112L13.2583 6.89697H13.3022L14.2383 3.35498H15.1567L16.1191 6.89697H16.1631L16.9233 3.35498H17.8989ZM18.8657 8V3.35498H19.8237V4.18994H19.8721C19.9907 3.8252 20.3291 3.28467 21.2695 3.28467C22.2056 3.28467 22.834 3.80322 22.834 4.8623V8H21.8584V5.14795C21.8584 4.44043 21.4893 4.11523 20.9399 4.11523C20.2192 4.11523 19.8413 4.66895 19.8413 5.42041V8H18.8657ZM24.3105 8V1.68506H25.2861V8H24.3105ZM28.6348 3.27588C29.8477 3.27588 30.6958 4.0625 30.6958 5.36768V5.96973C30.6958 7.31885 29.8477 8.0791 28.6348 8.0791C27.4043 8.0791 26.5649 7.32764 26.5649 5.97412V5.37207C26.5649 4.10205 27.4175 3.27588 28.6348 3.27588ZM28.6392 4.0625C27.9448 4.0625 27.5493 4.64258 27.5493 5.42041V5.93896C27.5493 6.7168 27.9185 7.29248 28.6392 7.29248C29.3511 7.29248 29.7158 6.72119 29.7158 5.93896V5.42041C29.7158 4.64258 29.3335 4.0625 28.6392 4.0625ZM33.2227 8.07031C32.3218 8.07031 31.7021 7.5166 31.7021 6.65088C31.7021 5.8291 32.2734 5.27539 33.3457 5.27539H34.519V4.84033C34.519 4.30859 34.1807 4.05811 33.6445 4.05811C33.1172 4.05811 32.8799 4.27783 32.8052 4.58545H31.8779C31.9351 3.80762 32.5195 3.28467 33.6753 3.28467C34.6685 3.28467 35.4902 3.69775 35.4902 4.85352V8H34.563V7.39795H34.519C34.3125 7.75391 33.9082 8.07031 33.2227 8.07031ZM33.5259 7.31445C34.0796 7.31445 34.519 6.93652 34.519 6.43115V5.93018H33.4995C32.9326 5.93018 32.6821 6.21582 32.6821 6.60254C32.6821 7.08594 33.0864 7.31445 33.5259 7.31445ZM38.4961 3.29346C39.1509 3.29346 39.6519 3.5835 39.832 4.05371H39.8804V1.68506H40.856V8H39.9067V7.25732H39.8584C39.7178 7.72754 39.1597 8.06152 38.4829 8.06152C37.415 8.06152 36.7207 7.30127 36.7207 6.0752V5.27979C36.7207 4.05371 37.4282 3.29346 38.4961 3.29346ZM38.7686 4.09326C38.1182 4.09326 37.7139 4.57666 37.7139 5.42041V5.93018C37.7139 6.77832 38.1226 7.26172 38.7905 7.26172C39.4497 7.26172 39.8804 6.78271 39.8804 5.9917V5.28857C39.8804 4.57227 39.4102 4.09326 38.7686 4.09326ZM46.2129 3.27588C47.4258 3.27588 48.2739 4.0625 48.2739 5.36768V5.96973C48.2739 7.31885 47.4258 8.0791 46.2129 8.0791C44.9824 8.0791 44.1431 7.32764 44.1431 5.97412V5.37207C44.1431 4.10205 44.9956 3.27588 46.2129 3.27588ZM46.2173 4.0625C45.5229 4.0625 45.1274 4.64258 45.1274 5.42041V5.93896C45.1274 6.7168 45.4966 7.29248 46.2173 7.29248C46.9292 7.29248 47.2939 6.72119 47.2939 5.93896V5.42041C47.2939 4.64258 46.9116 4.0625 46.2173 4.0625ZM49.5308 8V3.35498H50.4888V4.18994H50.5371C50.6558 3.8252 50.9941 3.28467 51.9346 3.28467C52.8706 3.28467 53.499 3.80322 53.499 4.8623V8H52.5234V5.14795C52.5234 4.44043 52.1543 4.11523 51.605 4.11523C50.8843 4.11523 50.5063 4.66895 50.5063 5.42041V8H49.5308ZM57.2739 3.38574V2.22559H58.2275V3.38574H59.269V4.15039H58.2275V6.61572C58.2275 7.12109 58.4165 7.26172 58.9395 7.26172C59.0713 7.26172 59.2471 7.25293 59.3218 7.24414V7.99121C59.2427 8.00439 58.9175 8.03076 58.6978 8.03076C57.5684 8.03076 57.2607 7.62646 57.2607 6.69482V4.15039H56.5532V3.38574H57.2739ZM60.4995 8V1.68506H61.4707V4.18994H61.519C61.6201 3.86035 61.998 3.28467 62.9297 3.28467C63.835 3.28467 64.481 3.80762 64.481 4.8667V8H63.5098V5.15234C63.5098 4.44482 63.1187 4.11523 62.5649 4.11523C61.8662 4.11523 61.4707 4.66455 61.4707 5.42041V8H60.4995ZM67.7549 8.0791C66.4893 8.0791 65.7026 7.30127 65.7026 5.9917V5.36328C65.7026 4.04492 66.564 3.27588 67.6978 3.27588C68.8623 3.27588 69.6841 4.08447 69.6841 5.36328V5.9082H66.6694V6.13672C66.6694 6.80469 67.0649 7.29688 67.7505 7.29688C68.2603 7.29688 68.6118 7.05518 68.6777 6.76514H69.6313C69.5742 7.30127 69.0073 8.0791 67.7549 8.0791ZM66.6694 5.271H68.7305V5.20947C68.7305 4.51074 68.3218 4.04492 67.7021 4.04492C67.0825 4.04492 66.6694 4.51074 66.6694 5.20947V5.271Z" fill="white"/>
<path d="M2.20605 24H0.175781L4.30664 12.0029H6.53906L10.6611 24H8.55176L7.48828 20.6777H3.27832L2.20605 24ZM5.43164 14.0771H5.35254L3.72656 19.1484H7.04004L5.43164 14.0771ZM16.2644 24.1318C15.0603 24.1318 14.1462 23.5605 13.654 22.708H13.5837V27.085H11.6325V14.71H13.531V16.0723H13.6013C14.1111 15.1846 15.0603 14.5869 16.3083 14.5869C18.3913 14.5869 19.8767 16.1602 19.8767 18.9375V19.7637C19.8767 22.5234 18.4089 24.1318 16.2644 24.1318ZM15.8161 22.5234C17.0554 22.5234 17.8991 21.5303 17.8991 19.6582V19.0078C17.8991 17.2061 17.1081 16.1777 15.781 16.1777C14.4187 16.1777 13.5661 17.2852 13.5661 18.999V19.6582C13.5661 21.416 14.4275 22.5234 15.8161 22.5234ZM26.183 24.1318C24.9789 24.1318 24.0649 23.5605 23.5727 22.708H23.5024V27.085H21.5512V14.71H23.4496V16.0723H23.52C24.0297 15.1846 24.9789 14.5869 26.227 14.5869C28.31 14.5869 29.7954 16.1602 29.7954 18.9375V19.7637C29.7954 22.5234 28.3276 24.1318 26.183 24.1318ZM25.7348 22.5234C26.9741 22.5234 27.8178 21.5303 27.8178 19.6582V19.0078C27.8178 17.2061 27.0268 16.1777 25.6996 16.1777C24.3373 16.1777 23.4848 17.2852 23.4848 18.999V19.6582C23.4848 21.416 24.3461 22.5234 25.7348 22.5234ZM33.8387 20.6689H35.7899C35.8778 21.7061 36.7919 22.5938 38.4882 22.5938C40.0438 22.5938 40.9667 21.8643 40.9667 20.7305C40.9667 19.8164 40.3514 19.3242 39.0682 19.0166L37.0995 18.5244C35.5526 18.1641 34.1639 17.2412 34.1639 15.29C34.1639 12.9961 36.1679 11.7393 38.497 11.7393C40.8261 11.7393 42.7684 12.9961 42.8124 15.2373H40.8964C40.8085 14.2178 40.0262 13.374 38.4706 13.374C37.0995 13.374 36.1679 14.0244 36.1679 15.1406C36.1679 15.9229 36.7128 16.4854 37.829 16.7402L39.7889 17.2236C41.5907 17.6631 42.9618 18.5156 42.9618 20.5547C42.9618 22.9102 41.0546 24.2373 38.3387 24.2373C34.9989 24.2373 33.8827 22.2861 33.8387 20.6689ZM45.3395 14.71V12.4512H47.2555V14.71H49.066V16.2744H47.2555V21.2314C47.2555 22.2422 47.6334 22.5234 48.6793 22.5234C48.8463 22.5234 49.0045 22.5234 49.1188 22.5059V24C48.9605 24.0264 48.5914 24.0615 48.1959 24.0615C45.9371 24.0615 45.3131 23.2529 45.3131 21.3896V16.2744H44.0299V14.71H45.3395ZM54.3353 14.5518C57.0071 14.5518 58.4573 16.4326 58.4573 18.9639V19.7109C58.4573 22.3301 57.0159 24.1582 54.3353 24.1582C51.6546 24.1582 50.1956 22.3301 50.1956 19.7109V18.9639C50.1956 16.4414 51.6634 14.5518 54.3353 14.5518ZM54.3353 16.1162C52.8851 16.1162 52.1644 17.3027 52.1644 18.9902V19.7021C52.1644 21.3633 52.8763 22.585 54.3353 22.585C55.7943 22.585 56.4974 21.3721 56.4974 19.7021V18.9902C56.4974 17.2939 55.7855 16.1162 54.3353 16.1162ZM60.1055 24V14.71H62.0567V15.9316H62.127C62.3643 15.3516 63.0586 14.5781 64.3506 14.5781C64.6055 14.5781 64.8252 14.5957 65.0098 14.6309V16.3535C64.8428 16.3096 64.5 16.2832 64.1748 16.2832C62.6104 16.2832 62.083 17.25 62.083 18.498V24H60.1055ZM69.7429 24.1582C67.2556 24.1582 65.6736 22.5146 65.6736 19.7637V18.8232C65.6736 16.2305 67.2205 14.5518 69.6638 14.5518C72.1423 14.5518 73.6365 16.292 73.6365 18.9111V19.7988H67.5984V20.0186C67.5984 21.583 68.4421 22.6201 69.7693 22.6201C70.7625 22.6201 71.4392 22.1279 71.6765 21.3281H73.531C73.2498 22.8311 72.0369 24.1582 69.7429 24.1582ZM67.5984 18.4365H71.7293V18.4189C71.7293 17.1006 70.9119 16.0635 69.6726 16.0635C68.4158 16.0635 67.5984 17.1006 67.5984 18.4189V18.4365Z" fill="white"/>
</svg>
