<svg width="320" height="32" viewBox="0 0 320 32" fill="none" xmlns="http://www.w3.org/2000/svg">
<path d="M15.9861 30.5469C14.198 29.8151 12.7675 28.7257 11.6946 27.2897C10.6217 25.8537 10.0605 24.1206 10 22.0959H18.0109C18.1264 23.2403 18.5225 24.1151 19.1993 24.7148C19.876 25.3145 20.7563 25.6171 21.8402 25.6171C22.9241 25.6171 23.8374 25.3585 24.4812 24.8469C25.1249 24.3352 25.4495 23.6199 25.4495 22.7121C25.4495 21.9473 25.1909 21.3201 24.6792 20.8194C24.1676 20.3187 23.5348 19.9116 22.7866 19.587C22.0383 19.2624 20.9764 18.8992 19.5954 18.4866C17.5982 17.8704 15.9696 17.2542 14.7097 16.6379C13.4497 16.0217 12.3603 15.1139 11.4525 13.909C10.5447 12.704 10.088 11.136 10.088 9.19928C10.088 6.32175 11.1279 4.07145 13.2131 2.44287C15.2984 0.81429 18.0109 0 21.356 0C24.7012 0 27.5017 0.81429 29.587 2.44287C31.6722 4.07145 32.7836 6.33826 32.9322 9.2433H24.7893C24.7288 8.24744 24.3656 7.46066 23.6889 6.88846C23.0121 6.31625 22.1483 6.03015 21.092 6.03015C20.1841 6.03015 19.4469 6.27224 18.8912 6.75641C18.3355 7.24058 18.0549 7.93933 18.0549 8.84716C18.0549 9.84301 18.5225 10.6243 19.4634 11.18C20.4042 11.7357 21.8677 12.3409 23.8649 12.9846C25.8622 13.6614 27.4797 14.3051 28.7287 14.9213C29.9776 15.5375 31.056 16.4344 31.9638 17.6063C32.8717 18.7782 33.3283 20.2912 33.3283 22.1399C33.3283 23.9886 32.8827 25.5016 31.9858 26.9376C31.089 28.3736 29.7906 29.518 28.0905 30.3708C26.3903 31.2236 24.3766 31.6473 22.0603 31.6473C19.744 31.6473 17.7743 31.2787 15.9861 30.5469Z" fill="black"/>
<path d="M69.4322 0.440155V31.3392H61.9055V18.6186H50.1973V31.3392H42.6707V0.440155H50.1973V12.5445H61.9055V0.440155H69.4322Z" fill="black"/>
<path d="M86.2957 6.47031V12.7205H96.3753V18.5306H86.2957V25.309H97.6958V31.3392H78.769V0.440155H97.6958V6.47031H86.2957Z" fill="black"/>
<path d="M142.031 0.440155V31.3392H134.504V12.8086L127.593 31.3392H121.519L114.565 12.7646V31.3392H107.038V0.440155H115.929L124.6 21.8318L133.183 0.440155H142.031Z" fill="black"/>
<path d="M174.388 18.1565C175.472 19.5485 176.016 21.144 176.016 22.9322C176.016 25.5126 175.114 27.5593 173.309 29.0724C171.505 30.5854 168.99 31.3392 165.761 31.3392H151.367V0.440155H165.276C168.418 0.440155 170.872 1.16091 172.649 2.59692C174.426 4.03294 175.312 5.98613 175.312 8.45101C175.312 10.2722 174.833 11.7797 173.881 12.9846C172.93 14.1896 171.659 15.0259 170.074 15.4935C171.862 15.8732 173.304 16.7645 174.388 18.1565ZM158.894 12.9406H163.824C165.056 12.9406 166.003 12.671 166.663 12.1263C167.323 11.5816 167.653 10.7838 167.653 9.72747C167.653 8.67109 167.323 7.8623 166.663 7.3066C166.003 6.75091 165.056 6.47031 163.824 6.47031H158.894V12.9406ZM167.367 24.4067C168.055 23.8345 168.402 23.0037 168.402 21.9198C168.402 20.8359 168.044 19.9831 167.323 19.3669C166.602 18.7507 165.612 18.4426 164.352 18.4426H158.894V25.265H164.44C165.7 25.265 166.679 24.9789 167.367 24.4067Z" fill="black"/>
<path d="M192.885 6.47031V12.7205H202.965V18.5306H192.885V25.309H204.285V31.3392H185.359V0.440155H204.285V6.47031H192.885Z" fill="black"/>
<path d="M238.827 24.5168H225.446L222.981 31.3392H218.755L229.847 0.836304H234.469L245.517 31.3392H241.292L238.827 24.5168ZM237.682 21.2596L232.136 5.76606L226.59 21.2596H237.682Z" fill="black"/>
<path d="M272.499 31.3392L265.192 18.7947H260.35V31.3392H256.345V0.660248H266.248C268.565 0.660248 270.523 1.05639 272.124 1.84867C273.726 2.64095 274.919 3.71384 275.712 5.06182C276.504 6.4098 276.9 7.95035 276.9 9.68347C276.9 11.7962 276.289 13.6614 275.074 15.2735C273.858 16.8855 272.031 17.9584 269.594 18.4866L277.296 31.3392H272.499ZM260.35 15.5816H266.248C268.422 15.5816 270.05 15.0479 271.134 13.975C272.218 12.9021 272.763 11.4716 272.763 9.68347C272.763 7.89533 272.229 6.45381 271.156 5.45796C270.083 4.4621 268.449 3.96143 266.248 3.96143H260.35V15.5816Z" fill="black"/>
<path d="M304.762 31.3392L292.13 17.3422V31.3392H288.124V0.660248H292.13V14.8773L304.806 0.660248H309.868L295.959 16.0217L310 31.3392H304.762Z" fill="black"/>
</svg>
